<svg id="Group_5198" data-name="Group 5198" xmlns="http://www.w3.org/2000/svg" width="24" height="24" viewBox="0 0 24 24">
  <g id="sms_bulk" data-name="sms/bulk">
    <g id="vuesax_bulk_sms" data-name="vuesax/bulk/sms">
      <g id="sms">
        <path id="Vector" d="M0,0H24V24H0Z" fill="none" opacity="0"/>
        <path id="Vector-2" data-name="Vector" d="M15,17H5c-3,0-5-1.5-5-5V5C0,1.5,2,0,5,0H15c3,0,5,1.5,5,5v7C20,15.5,18,17,15,17Z" transform="translate(2 3.5)" fill="#388b9f" opacity="0.4"/>
        <g id="Group" transform="translate(6.247 8.244)">
          <path id="Vector-3" data-name="Vector" d="M5.753,4.626a3.717,3.717,0,0,1-2.34-.79l-3.13-2.5a.747.747,0,1,1,.93-1.17l3.13,2.5a2.386,2.386,0,0,0,2.81,0l3.13-2.5a.738.738,0,0,1,1.05.12.738.738,0,0,1-.12,1.05l-3.13,2.5A3.67,3.67,0,0,1,5.753,4.626Z" fill="#388b9f"/>
        </g>
      </g>
    </g>
  </g>
</svg>
