<svg xmlns="http://www.w3.org/2000/svg" width="24" height="24" viewBox="0 0 24 24">
  <g id="Group_5232" data-name="Group 5232" transform="translate(-404 13)">
    <g id="mouse-circle_bulk" data-name="mouse-circle/bulk" transform="translate(404 -13)">
      <g id="vuesax_bulk_mouse-circle" data-name="vuesax/bulk/mouse-circle">
        <g id="mouse-circle">
          <path id="Vector" d="M0,0H24V24H0Z" fill="none" opacity="0"/>
          <path id="Vector-2" data-name="Vector" d="M7.95,4.823l-1.63.55a1.505,1.505,0,0,0-.96.96l-.55,1.63a1.516,1.516,0,0,1-2.89-.03L.07,1.983A1.519,1.519,0,0,1,1.97.073l5.96,1.85A1.526,1.526,0,0,1,7.95,4.823Z" transform="translate(13.01 13.017)" fill="#388b9f"/>
          <path id="Vector-3" data-name="Vector" d="M19,9.5A9.5,9.5,0,1,1,9.5,0,9.5,9.5,0,0,1,19,9.5Z" transform="translate(2 2)" fill="#388b9f" opacity="0.4"/>
        </g>
      </g>
    </g>
  </g>
</svg>
