<svg xmlns="http://www.w3.org/2000/svg" width="18.682" height="18.678" viewBox="0 0 18.682 18.678">
  <path id="FontAwsome_instagram_" data-name="FontAwsome (instagram)" d="M9.268,36.375a4.789,4.789,0,1,0,4.789,4.789A4.781,4.781,0,0,0,9.268,36.375Zm0,7.9a3.113,3.113,0,1,1,3.113-3.113,3.119,3.119,0,0,1-3.113,3.113Zm6.1-8.1a1.117,1.117,0,1,1-1.117-1.117A1.114,1.114,0,0,1,15.37,36.179Zm3.172,1.134A5.528,5.528,0,0,0,17.033,33.4a5.564,5.564,0,0,0-3.914-1.509c-1.542-.088-6.164-.088-7.706,0A5.556,5.556,0,0,0,1.5,33.4,5.546,5.546,0,0,0-.009,37.309c-.088,1.542-.088,6.164,0,7.706A5.528,5.528,0,0,0,1.5,48.929a5.571,5.571,0,0,0,3.914,1.509c1.542.088,6.164.088,7.706,0a5.528,5.528,0,0,0,3.914-1.509,5.564,5.564,0,0,0,1.509-3.914c.088-1.542.088-6.16,0-7.7ZM16.549,46.67a3.152,3.152,0,0,1-1.775,1.775c-1.229.488-4.147.375-5.506.375s-4.28.108-5.506-.375A3.152,3.152,0,0,1,1.987,46.67c-.488-1.229-.375-4.147-.375-5.506s-.108-4.28.375-5.506a3.152,3.152,0,0,1,1.775-1.775c1.229-.488,4.147-.375,5.506-.375s4.28-.108,5.506.375a3.152,3.152,0,0,1,1.775,1.775c.488,1.229.375,4.147.375,5.506S17.037,45.444,16.549,46.67Z" transform="translate(0.075 -31.825)" fill="#fff"/>
</svg>
