<svg xmlns="http://www.w3.org/2000/svg" width="24" height="24" viewBox="0 0 24 24">
  <g id="Group_58" data-name="Group 58" transform="translate(-7 -14)">
    <g id="location_bulk" data-name="location/bulk" transform="translate(7 14)">
      <g id="vuesax_bulk_location" data-name="vuesax/bulk/location">
        <g id="location">
          <path id="Vector" d="M17.5,6.7A8.626,8.626,0,0,0,8.88,0H8.87A8.624,8.624,0,0,0,.25,6.69C-.92,11.85,2.24,16.22,5.1,18.97a5.422,5.422,0,0,0,7.55,0C15.51,16.22,18.67,11.86,17.5,6.7Z" transform="translate(3.12 1.75)" fill="#388b9f" opacity="0.4"/>
          <path id="Vector-2" data-name="Vector" d="M6.3,3.15A3.15,3.15,0,1,1,3.15,0,3.15,3.15,0,0,1,6.3,3.15Z" transform="translate(8.85 7.16)" fill="#388b9f"/>
          <path id="Vector-3" data-name="Vector" d="M0,0H24V24H0Z" fill="none" opacity="0"/>
        </g>
      </g>
    </g>
  </g>
</svg>
