<svg id="mobile_bulk" data-name="mobile/bulk" xmlns="http://www.w3.org/2000/svg" width="24" height="24" viewBox="0 0 24 24">
  <g id="vuesax_bulk_mobile" data-name="vuesax/bulk/mobile">
    <g id="mobile">
      <path id="Vector" d="M12.24,0H3.76C1,0,0,1,0,3.81V16.19C0,19,1,20,3.76,20h8.47C15,20,16,19,16,16.19V3.81C16,1,15,0,12.24,0Z" transform="translate(4 2)" fill="#388b9f" opacity="0.4"/>
      <path id="Vector-2" data-name="Vector" d="M4.75,1.5h-4A.755.755,0,0,1,0,.75.755.755,0,0,1,.75,0h4A.755.755,0,0,1,5.5.75.755.755,0,0,1,4.75,1.5Z" transform="translate(9.25 4.75)" fill="#388b9f"/>
      <path id="Vector-3" data-name="Vector" d="M3.5,1.75A1.75,1.75,0,1,1,1.75,0,1.75,1.75,0,0,1,3.5,1.75Z" transform="translate(10.25 15.8)" fill="#388b9f"/>
      <path id="Vector-4" data-name="Vector" d="M0,0H24V24H0Z" fill="none" opacity="0"/>
    </g>
  </g>
</svg>
