<svg id="like" xmlns="http://www.w3.org/2000/svg" width="79.997" height="80" viewBox="0 0 79.997 80">
  <path id="Path_88" data-name="Path 88" d="M14.167,8H5.833A5.84,5.84,0,0,0,0,13.833V52.167A5.84,5.84,0,0,0,5.833,58h8.333A5.84,5.84,0,0,0,20,52.167V13.833A5.84,5.84,0,0,0,14.167,8Z" transform="translate(0 18.667)" fill="#388b9f"/>
  <path id="Path_89" data-name="Path 89" d="M49.087,27.417H33.353s2.5-5,2.5-13.333c0-10-7.5-13.333-10.833-13.333s-5,1.667-5,10c0,7.92-9.337,14.293-14.27,17.577V69.62c5.337,2.47,17.687,6.13,34.27,6.13h5.333A13.311,13.311,0,0,0,58.487,64.683L62.22,43.017a13.326,13.326,0,0,0-13.133-15.6Z" transform="translate(13.417 1.75)" fill="#6eb464"/>
  <path id="Path_90" data-name="Path 90" d="M5.833,80h8.333A5.84,5.84,0,0,0,20,74.167v-1.22C25.04,75.513,36.487,80,55.1,80h5.333a15.791,15.791,0,0,0,15.6-13.14l3.733-21.667a15.827,15.827,0,0,0-15.6-18.527H49.05a31.1,31.1,0,0,0,1.887-10.833C50.937,3.31,43.85,0,40.1,0c-6.92,0-7.5,6.453-7.5,12.5,0,7.38-8.277,13.513-12.647,16.24a5.824,5.824,0,0,0-5.79-5.407H5.833A5.84,5.84,0,0,0,0,29.167v45A5.84,5.84,0,0,0,5.833,80ZM37.6,12.5C37.6,5,38.873,5,40.1,5c2.347,0,5.833,2.887,5.833,10.833A23.67,23.67,0,0,1,43.023,27.78a2.5,2.5,0,0,0,2.08,3.887H64.17A10.825,10.825,0,0,1,74.84,44.34L71.107,66.007A10.8,10.8,0,0,1,60.437,75H55.1C32.427,75,21.067,67.907,20,67.2V34.5c2.777-1.473,17.6-9.907,17.6-22ZM5,29.167a.834.834,0,0,1,.833-.833h8.333a.834.834,0,0,1,.833.833v45a.842.842,0,0,1-.833.833H5.833A.834.834,0,0,1,5,74.167Z" transform="translate(0)"/>
</svg>
