<svg id="secure" xmlns="http://www.w3.org/2000/svg" width="80" height="80" viewBox="0 0 80 80">
  <path id="Path_115" data-name="Path 115" d="M44.862,3.609H9.122A8.543,8.543,0,0,0,.575,12.156V51a8.543,8.543,0,0,0,8.547,8.547h35.74A8.543,8.543,0,0,0,53.408,51V12.156a8.543,8.543,0,0,0-8.547-8.547Z" transform="translate(1.342 8.421)" fill="#6eb464"/>
  <path id="Path_116" data-name="Path 116" d="M29.2,6.325H25.9a8.267,8.267,0,0,0-15.9,0H6.7a2.266,2.266,0,0,0-2.25,2.25v6a5.275,5.275,0,0,0,5.25,5.25H26.2a5.275,5.275,0,0,0,5.25-5.25v-6a2.266,2.266,0,0,0-2.25-2.25Z" transform="translate(10.383 0.758)" fill="#6eb464"/>
  <path id="Path_117" data-name="Path 117" d="M31.125,53.975a2.98,2.98,0,0,1-1.173-.24c-.717-.307-17.577-7.647-17.577-22.85V18.832a3,3,0,0,1,2.033-2.84l15.75-5.357a3,3,0,0,1,1.933,0l15.75,5.357a3,3,0,0,1,2.033,2.84V30.885c0,15.2-16.857,22.543-17.577,22.85a2.98,2.98,0,0,1-1.173.24Z" transform="translate(28.875 24.442)" fill="#388b9f"/>
  <path id="Path_118" data-name="Path 118" d="M32,56.666a2.5,2.5,0,0,1-.98-.2C30.247,56.136,12,48.189,12,31.846V18.453a2.5,2.5,0,0,1,1.7-2.367l17.5-5.953a2.5,2.5,0,0,1,1.607,0l17.5,5.953A2.5,2.5,0,0,1,52,18.453V31.846c0,16.343-18.247,24.29-19.02,24.623a2.559,2.559,0,0,1-.98.2ZM17,20.243v11.6c0,11.11,11.52,17.79,15,19.55,3.48-1.76,15-8.44,15-19.55v-11.6l-15-5.1Z" transform="translate(28 23.334)"/>
  <path id="Path_119" data-name="Path 119" d="M24.166,32.334A2.481,2.481,0,0,1,22.4,31.6l-6.667-6.667A2.5,2.5,0,0,1,19.269,21.4l4.63,4.63L32.166,15a2.5,2.5,0,0,1,4,3l-10,13.333a2.5,2.5,0,0,1-1.823.993c-.057,0-.113,0-.173,0Z" transform="translate(35.001 32.666)"/>
  <path id="Path_120" data-name="Path 120" d="M35.3,63H9.167A9.174,9.174,0,0,1,0,53.833V12.167A9.174,9.174,0,0,1,9.167,3h6.267a2.5,2.5,0,1,1,0,5H9.167A4.172,4.172,0,0,0,5,12.167V53.833A4.172,4.172,0,0,0,9.167,58H35.3a2.5,2.5,0,0,1,0,5Z" transform="translate(0 7)"/>
  <path id="Path_121" data-name="Path 121" d="M27.03,22.767a2.5,2.5,0,0,1-2.5-2.5v-8.1A4.172,4.172,0,0,0,20.363,8H14.13a2.5,2.5,0,1,1,0-5h6.233a9.174,9.174,0,0,1,9.167,9.167v8.1A2.5,2.5,0,0,1,27.03,22.767Z" transform="translate(27.137 7)"/>
  <path id="Path_122" data-name="Path 122" d="M28.167,21.667H9.833A5.84,5.84,0,0,1,4,15.833V9.167a2.5,2.5,0,0,1,2.5-2.5h3.68a9.168,9.168,0,0,1,17.64,0H31.5a2.5,2.5,0,0,1,2.5,2.5v6.667A5.84,5.84,0,0,1,28.167,21.667ZM9,11.667v4.167a.834.834,0,0,0,.833.833H28.167A.834.834,0,0,0,29,15.833V11.667H25.667a2.5,2.5,0,0,1-2.5-2.5,4.167,4.167,0,0,0-8.333,0,2.5,2.5,0,0,1-2.5,2.5Z" transform="translate(9.333)"/>
  <path id="Path_123" data-name="Path 123" d="M37.167,13H5.5a2.5,2.5,0,1,1,0-5H37.167a2.5,2.5,0,0,1,0,5Z" transform="translate(7 18.667)"/>
  <path id="Path_124" data-name="Path 124" d="M25.9,16H5.5a2.5,2.5,0,1,1,0-5H25.9a2.5,2.5,0,1,1,0,5Z" transform="translate(7 25.667)"/>
  <path id="Path_125" data-name="Path 125" d="M25.5,19H5.5a2.5,2.5,0,0,1,0-5h20a2.5,2.5,0,0,1,0,5Z" transform="translate(7 32.667)"/>
</svg>
