<svg xmlns="http://www.w3.org/2000/svg" width="83.478" height="80" viewBox="0 0 83.478 80">
  <g id="infographic" transform="translate(0 -1)">
    <path id="Path_79" data-name="Path 79" d="M14.535,17.75h-9.5a3.394,3.394,0,0,0-3.392,3.392V34.715A2.036,2.036,0,0,0,3.678,36.75H15.893a2.036,2.036,0,0,0,2.035-2.035V21.142a3.394,3.394,0,0,0-3.392-3.392Z" transform="translate(4.033 41.659)" fill="#388b9f"/>
    <path id="Path_80" data-name="Path 80" d="M23.456,11.948H13.126a3.693,3.693,0,0,0-3.689,3.689V48.1a2.214,2.214,0,0,0,2.214,2.214H24.931A2.214,2.214,0,0,0,27.145,48.1V15.637a3.7,3.7,0,0,0-3.689-3.689Z" transform="translate(23.448 27.418)" fill="#6eb464"/>
    <path id="Path_81" data-name="Path 81" d="M31.456,13.8H21.126a3.693,3.693,0,0,0-3.689,3.689V44.047a2.214,2.214,0,0,0,2.214,2.214H32.931a2.214,2.214,0,0,0,2.214-2.214V17.491A3.7,3.7,0,0,0,31.456,13.8Z" transform="translate(43.369 31.968)" fill="#388b9f"/>
    <path id="Path_82" data-name="Path 82" d="M80.87,27.682H2.609a2.591,2.591,0,1,1,0-5.182H80.87a2.591,2.591,0,1,1,0,5.182Z" transform="translate(0 53.318)"/>
    <path id="Path_83" data-name="Path 83" d="M19.136,41.182H3.591A2.592,2.592,0,0,1,1,38.591V21.318A4.324,4.324,0,0,1,5.318,17H17.409a4.324,4.324,0,0,1,4.318,4.318V38.591A2.592,2.592,0,0,1,19.136,41.182ZM6.182,36H16.546V22.182H6.182Z" transform="translate(2.455 39.818)"/>
    <path id="Path_84" data-name="Path 84" d="M27.136,55.909H11.591A2.592,2.592,0,0,1,9,53.318v-38A4.324,4.324,0,0,1,13.318,11H25.409a4.324,4.324,0,0,1,4.318,4.318v38A2.592,2.592,0,0,1,27.136,55.909ZM14.182,50.728H24.546V16.182H14.182Z" transform="translate(22.375 25.091)"/>
    <path id="Path_85" data-name="Path 85" d="M35.136,51H19.591A2.592,2.592,0,0,1,17,48.409V17.318A4.324,4.324,0,0,1,21.318,13H33.409a4.324,4.324,0,0,1,4.318,4.318V48.409A2.592,2.592,0,0,1,35.136,51ZM22.182,45.818H32.546V18.182H22.182Z" transform="translate(42.296 30)"/>
    <path id="Path_86" data-name="Path 86" d="M4.612,35.545a2.64,2.64,0,0,1-1.9-.808,2.58,2.58,0,0,1,.1-3.662L19.359,15.529a2.6,2.6,0,0,1,2.26-.667L49.006,19.8,67.2,1.759a2.628,2.628,0,0,1,3.7,0,2.577,2.577,0,0,1,0,3.665l-19.156,19a2.63,2.63,0,0,1-2.313.719l-27.436-4.95L6.405,34.837a2.6,2.6,0,0,1-1.794.708Z" transform="translate(4.91 0.001)"/>
    <path id="Path_87" data-name="Path 87" d="M31.682,18.273a2.592,2.592,0,0,1-2.591-2.591v-9.5h-9.5a2.591,2.591,0,1,1,0-5.182H31.682a2.592,2.592,0,0,1,2.591,2.591V15.682A2.592,2.592,0,0,1,31.682,18.273Z" transform="translate(42.296)"/>
  </g>
</svg>
