<svg id="skill" xmlns="http://www.w3.org/2000/svg" width="80" height="80" viewBox="0 0 80 80">
  <g id="Group_36" data-name="Group 36" transform="translate(35.472 2.52)">
    <path id="Path_73" data-name="Path 73" d="M39.315,32.676a3.37,3.37,0,0,0,3.361-3.361V22.527a6.721,6.721,0,1,0,0-11.628V4.111A3.37,3.37,0,0,0,39.315.75H32.527A6.721,6.721,0,1,1,20.9.75H14.111A3.37,3.37,0,0,0,10.75,4.111v25.2a3.362,3.362,0,0,0,3.361,3.361Z" transform="translate(-10.75 -0.75)" fill="#6eb464"/>
  </g>
  <g id="Group_37" data-name="Group 37" transform="translate(15.785 22.432)">
    <path id="Path_74" data-name="Path 74" d="M15.672,28.594A10.922,10.922,0,1,1,26.594,17.672,10.935,10.935,0,0,1,15.672,28.594Z" transform="translate(-4.75 -6.75)" fill="#388b9f"/>
  </g>
  <g id="Group_38" data-name="Group 38" transform="translate(2.52 55.636)">
    <path id="Path_75" data-name="Path 75" d="M49.479,41.114H.75V30.192A13.443,13.443,0,0,1,14.192,16.75H36.036A13.443,13.443,0,0,1,49.479,30.192Z" transform="translate(-0.75 -16.75)" fill="#388b9f"/>
  </g>
  <g id="Group_39" data-name="Group 39" transform="translate(32.952 0)">
    <path id="Path_76" data-name="Path 76" d="M41.086,36.967H25.9a2.52,2.52,0,0,1,0-5.041h15.19a.849.849,0,0,0,.84-.84V24.3a2.519,2.519,0,0,1,3.794-2.174,4.2,4.2,0,1,0,0-7.279,2.519,2.519,0,0,1-3.794-2.174V5.881a.849.849,0,0,0-.84-.84h-3.4c.027.279.04.561.04.84a9.242,9.242,0,1,1-18.483,0c0-.279.013-.561.04-.84h-3.4a.849.849,0,0,0-.84.84V12.6A2.52,2.52,0,1,1,10,12.6V5.881A5.888,5.888,0,0,1,15.881,0h6.788a2.522,2.522,0,0,1,2.174,3.794,4.2,4.2,0,1,0,7.279,0A2.522,2.522,0,0,1,34.3,0h6.788a5.888,5.888,0,0,1,5.881,5.881v3.4a9.341,9.341,0,0,1,10.082,9.2,9.317,9.317,0,0,1-10.082,9.2v3.4A5.888,5.888,0,0,1,41.086,36.967Z" transform="translate(-10 0)"/>
  </g>
  <g id="Group_40" data-name="Group 40" transform="translate(13.279 19.918)">
    <path id="Path_77" data-name="Path 77" d="M17.442,32.885A13.442,13.442,0,1,1,30.885,19.442,13.456,13.456,0,0,1,17.442,32.885Zm0-21.844a8.4,8.4,0,1,0,8.4,8.4A8.411,8.411,0,0,0,17.442,11.041Z" transform="translate(-4 -6)"/>
  </g>
  <g id="Group_41" data-name="Group 41" transform="translate(0 53.115)">
    <path id="Path_78" data-name="Path 78" d="M51.249,42.885a2.521,2.521,0,0,1-2.52-2.52v-8.4A10.935,10.935,0,0,0,37.807,21.041H15.963A10.935,10.935,0,0,0,5.041,31.963v8.4a2.52,2.52,0,0,1-5.041,0v-8.4A15.982,15.982,0,0,1,15.963,16H37.807A15.982,15.982,0,0,1,53.77,31.963v8.4A2.521,2.521,0,0,1,51.249,42.885Z" transform="translate(0 -16)"/>
  </g>
</svg>
