<svg id="idea" xmlns="http://www.w3.org/2000/svg" width="80" height="80" viewBox="0 0 80 80">
  <path id="Path_91" data-name="Path 91" d="M51.67,28.33a23.284,23.284,0,0,1-8.9,18.333,11.191,11.191,0,0,0-4.267,6.7.3.3,0,0,0-.167-.033h-20a.567.567,0,0,0-.233.033,10.143,10.143,0,0,0-3.8-6.4A23.335,23.335,0,1,1,51.67,28.33Z" transform="translate(11.664 11.67)" fill="#6eb464"/>
  <path id="Path_92" data-name="Path 92" d="M29.33,19.533a9.857,9.857,0,0,0-.167,1.733v7.4A5.861,5.861,0,0,1,23.33,34.5H15c-2.8,0-5.833-2.133-5.833-6.8V21.8a10.26,10.26,0,0,0-.233-2.267.567.567,0,0,1,.233-.033h20a.3.3,0,0,1,.167.033Z" transform="translate(20.837 45.5)" fill="#388b9f"/>
  <path id="Path_93" data-name="Path 93" d="M26.5,24.5h-15a2.5,2.5,0,0,1,0-5h15a2.5,2.5,0,0,1,0,5Z" transform="translate(21 45.5)"/>
  <path id="Path_94" data-name="Path 94" d="M13.75,11.523a2.5,2.5,0,0,1-2.5-2.5V2.5a2.5,2.5,0,0,1,5,0V9.023A2.5,2.5,0,0,1,13.75,11.523Z" transform="translate(26.25)"/>
  <path id="Path_95" data-name="Path 95" d="M20.32,12.91a2.5,2.5,0,0,1-1.767-4.27l4.613-4.613A2.5,2.5,0,1,1,26.7,7.563L22.09,12.177A2.508,2.508,0,0,1,20.32,12.91Z" transform="translate(41.583 7.687)"/>
  <path id="Path_96" data-name="Path 96" d="M29.566,16.25H23.043a2.5,2.5,0,0,1,0-5h6.523a2.5,2.5,0,1,1,0,5Z" transform="translate(47.934 26.25)"/>
  <path id="Path_97" data-name="Path 97" d="M24.934,27.436a2.48,2.48,0,0,1-1.767-.733l-4.613-4.613a2.5,2.5,0,1,1,3.537-3.537L26.7,23.166a2.5,2.5,0,0,1-1.77,4.27Z" transform="translate(41.583 41.581)"/>
  <path id="Path_98" data-name="Path 98" d="M5.794,27.436a2.5,2.5,0,0,1-1.767-4.27l4.613-4.613a2.5,2.5,0,1,1,3.537,3.537L7.564,26.7A2.494,2.494,0,0,1,5.794,27.436Z" transform="translate(7.689 41.581)"/>
  <path id="Path_99" data-name="Path 99" d="M9.023,16.25H2.5a2.5,2.5,0,0,1,0-5H9.023a2.5,2.5,0,0,1,0,5Z" transform="translate(0 26.25)"/>
  <path id="Path_100" data-name="Path 100" d="M10.408,12.91a2.48,2.48,0,0,1-1.767-.733L4.028,7.563A2.5,2.5,0,0,1,7.564,4.027L12.178,8.64a2.5,2.5,0,0,1-1.77,4.27Z" transform="translate(7.689 7.687)"/>
  <path id="Path_101" data-name="Path 101" d="M25.667,24.167a2.5,2.5,0,0,1-2.5-2.5A9.174,9.174,0,0,0,14,12.5a2.5,2.5,0,0,1,0-5A14.185,14.185,0,0,1,28.167,21.667,2.5,2.5,0,0,1,25.667,24.167Z" transform="translate(26.833 17.5)"/>
  <path id="Path_102" data-name="Path 102" d="M32.5,68.331H24.164c-2.81,0-5.833-2.133-5.833-6.813v-5.88a10.806,10.806,0,0,0-4.03-8.683,23.333,23.333,0,1,1,28.447-.3,10.861,10.861,0,0,0-4.417,8.43V62.5A5.84,5.84,0,0,1,32.5,68.331ZM28.284,10a19.363,19.363,0,0,0-3.94.41A18.322,18.322,0,0,0,17.3,42.958a15.828,15.828,0,0,1,6.023,12.68v5.88c0,.3.04,1.813.833,1.813h8.333a.834.834,0,0,0,.833-.833v-7.41a15.825,15.825,0,0,1,6.327-12.363A18.313,18.313,0,0,0,28.284,10Z" transform="translate(11.67 11.669)"/>
</svg>
