<svg xmlns="http://www.w3.org/2000/svg" width="50" height="50" viewBox="0 0 50 50">
  <g id="Group_5226" data-name="Group 5226" transform="translate(-327 -705)">
    <g id="mobile_bulk" data-name="mobile/bulk" transform="translate(327 705)">
      <g id="vuesax_bulk_mobile" data-name="vuesax/bulk/mobile">
        <g id="mobile">
          <path id="Vector" d="M25.5,0H7.833C2.083,0,0,2.083,0,7.937V33.729c0,5.854,2.083,7.937,7.833,7.937H25.479c5.771,0,7.854-2.083,7.854-7.937V7.937C33.333,2.083,31.25,0,25.5,0Z" transform="translate(8.333 4.167)" fill="#fff" opacity="0.4"/>
          <path id="Vector-2" data-name="Vector" d="M9.9,3.125H1.563A1.574,1.574,0,0,1,0,1.563,1.574,1.574,0,0,1,1.563,0H9.9a1.574,1.574,0,0,1,1.562,1.563A1.574,1.574,0,0,1,9.9,3.125Z" transform="translate(19.271 9.896)" fill="#fff"/>
          <path id="Vector-3" data-name="Vector" d="M7.292,3.646A3.646,3.646,0,1,1,3.646,0,3.646,3.646,0,0,1,7.292,3.646Z" transform="translate(21.354 32.917)" fill="#fff"/>
          <path id="Vector-4" data-name="Vector" d="M0,0H50V50H0Z" fill="none" opacity="0"/>
        </g>
      </g>
    </g>
  </g>
</svg>
