<svg xmlns="http://www.w3.org/2000/svg" xmlns:xlink="http://www.w3.org/1999/xlink" width="1170" height="246" viewBox="0 0 1170 246">
  <defs>
    <linearGradient id="linear-gradient" x1="1" y1="0.5" x2="0.274" y2="0.5" gradientUnits="objectBoundingBox">
      <stop offset="0" stop-color="#6eb464"/>
      <stop offset="1" stop-color="#388b9f"/>
    </linearGradient>
    <clipPath id="clip-path">
      <path id="Rectangle_17" data-name="Rectangle 17" d="M0,0H1110a60,60,0,0,1,60,60V246a0,0,0,0,1,0,0H60A60,60,0,0,1,0,186V0A0,0,0,0,1,0,0Z" transform="translate(98 731)" fill="url(#linear-gradient)"/>
    </clipPath>
  </defs>
  <g id="Mask_Group_3" data-name="Mask Group 3" transform="translate(-98 -731)" clip-path="url(#clip-path)">
    <g id="Group_59" data-name="Group 59" transform="translate(91.966 766)" opacity="0.1">
      <path id="Path_60" data-name="Path 60" d="M202.8,39.6l29.706,53.989-32.171,2.958L190.23,77.072" transform="translate(-48.355 58.224)" fill="#fff" opacity="0.5"/>
      <path id="Path_67" data-name="Path 67" d="M243.8,82.667c-10.354,26.378-18.366,53.5-27.487,80.367-6.163,18.12-6.04,18.243-24.652,19.475l-12.943.74c3.7-11.587,7.149-22.434,10.724-33.281,12.326-35.376,23.913-70.752,35.5-106.252a9.121,9.121,0,0,1,8.259-7.4c6.286,0,12.326-.986,18.859-1.109a14.668,14.668,0,0,1,6.163,0l1.356.986a13.151,13.151,0,0,1,1.109,2.342,7.273,7.273,0,0,0-4.191,5.424C252.307,57.028,248.363,69.847,243.8,82.667Z" transform="translate(-178.72 39.997)" fill="#fff"/>
      <path id="Path_68" data-name="Path 68" d="M201.208,81.741c4.437-12.326,9-24.652,12.942-36.979a7.766,7.766,0,0,1,8.259-6.41c8.259,0,16.641-.986,26.378-1.6-3.2,9.368-5.917,17.75-8.752,26.132-6.656,19.229-13.066,38.581-18.982,57.687-1.6,4.93-1.233,4.191-3.944,11.34-8.505,0-21.2-2.958-30.939-4.191a314.537,314.537,0,0,0,15.038-45.977Z" transform="translate(-94.34 61.116)" fill="#fff"/>
      <path id="Path_69" data-name="Path 69" d="M225.786,99.3a314.526,314.526,0,0,1-15.408,45.977L184,79.081c4.068-12.326,8.012-25.638,12.326-38.458a7.272,7.272,0,0,1,4.191-5.423Z" transform="translate(-118.918 43.543)" fill="#fff" opacity="0.5"/>
      <path id="Path_70" data-name="Path 70" d="M262.542,111.667l-10.97-80L200.911,94.164,217.3,98.848,191.05,186.364l31.8,1.109,21.817-80.86Z" transform="translate(-39.069 -31.67)" fill="#fff"/>
    </g>
  </g>
</svg>
