<svg xmlns="http://www.w3.org/2000/svg" width="20.498" height="16" viewBox="0 0 20.498 16">
  <path id="FontAwsome_twitter_" data-name="FontAwsome (twitter)" d="M18.391,52.07c.013.175.013.35.013.525A11.631,11.631,0,0,1,6.451,64.082,12.224,12.224,0,0,1,0,62.27a9.038,9.038,0,0,0,1.014.05A8.633,8.633,0,0,0,6.23,60.595a4.191,4.191,0,0,1-3.928-2.8,5.508,5.508,0,0,0,.793.062A4.613,4.613,0,0,0,4.2,57.72,4.082,4.082,0,0,1,.832,53.757v-.05a4.361,4.361,0,0,0,1.9.512A4,4,0,0,1,.858,50.857a3.889,3.889,0,0,1,.572-2.037,12.108,12.108,0,0,0,8.662,4.225,4.388,4.388,0,0,1-.1-.925,4.12,4.12,0,0,1,4.2-4.038,4.272,4.272,0,0,1,3.07,1.275,8.478,8.478,0,0,0,2.666-.975,4.06,4.06,0,0,1-1.847,2.225,8.692,8.692,0,0,0,2.419-.625A8.847,8.847,0,0,1,18.391,52.07Z" transform="translate(0 -48.082)" fill="#fff"/>
</svg>
