<svg xmlns="http://www.w3.org/2000/svg" width="24" height="24" viewBox="0 0 24 24">
  <g id="Group_5233" data-name="Group 5233" transform="translate(-816 -917)">
    <g id="danger_bulk" data-name="danger/bulk" transform="translate(816 917)">
      <g id="vuesax_bulk_danger" data-name="vuesax/bulk/danger">
        <g id="danger">
          <path id="Vector" d="M20.2,13.92,13.8,2.4A3.987,3.987,0,0,0,10.44,0,3.987,3.987,0,0,0,7.08,2.4L.68,13.92a3.96,3.96,0,0,0-.25,3.99,3.936,3.936,0,0,0,3.61,1.72h12.8a3.936,3.936,0,0,0,3.61-1.72A3.959,3.959,0,0,0,20.2,13.92Z" transform="translate(1.56 2)" fill="#6eb464" opacity="0.4"/>
          <path id="Vector-2" data-name="Vector" d="M.75,6.5A.755.755,0,0,1,0,5.75v-5A.755.755,0,0,1,.75,0,.755.755,0,0,1,1.5.75v5A.755.755,0,0,1,.75,6.5Z" transform="translate(11.25 8.25)" fill="#6eb464"/>
          <path id="Vector-3" data-name="Vector" d="M1,2a1.5,1.5,0,0,1-.2-.02.636.636,0,0,1-.18-.06.757.757,0,0,1-.18-.09l-.15-.12A1.052,1.052,0,0,1,0,1,1.052,1.052,0,0,1,.29.293L.44.172A.757.757,0,0,1,.62.082.636.636,0,0,1,.8.022a.856.856,0,0,1,.39,0,.6.6,0,0,1,.19.06.757.757,0,0,1,.18.09l.15.12A1.052,1.052,0,0,1,2,1a1.052,1.052,0,0,1-.29.71l-.15.12a.757.757,0,0,1-.18.09.6.6,0,0,1-.19.06A1.225,1.225,0,0,1,1,2Z" transform="translate(11 15.998)" fill="#6eb464"/>
          <path id="Vector-4" data-name="Vector" d="M0,0H24V24H0Z" fill="none" opacity="0"/>
        </g>
      </g>
    </g>
  </g>
</svg>
